<svg width="109" height="22" viewBox="0 0 109 22" fill="none" xmlns="http://www.w3.org/2000/svg">
<path d="M3.07822 10.146H0.324219V8.36398H3.07822V5.52898C3.07822 4.75498 3.15022 4.05298 3.29422 3.42298C3.43822 2.77498 3.68122 2.21698 4.02322 1.74898C4.38322 1.28098 4.85122 0.920977 5.42722 0.668977C6.00322 0.398977 6.71422 0.263977 7.56022 0.263977C7.83022 0.263977 8.11822 0.290977 8.42422 0.344976C8.73022 0.398976 8.98222 0.479976 9.18022 0.587976L8.88322 2.47798C8.37922 2.29798 7.90222 2.20798 7.45222 2.20798C6.91222 2.20798 6.48922 2.30698 6.18322 2.50498C5.87722 2.68498 5.64322 2.94598 5.48122 3.28798C5.33722 3.61198 5.24722 4.00798 5.21122 4.47598C5.19322 4.94398 5.18422 5.44798 5.18422 5.98798V8.36398H8.26222V10.146H5.18422V21H3.07822V10.146Z" fill="#00BAFA"/>
<path d="M10.5148 11.361C10.5148 10.785 10.4968 10.245 10.4608 9.74098C10.4248 9.23698 10.4068 8.77798 10.4068 8.36398H12.4048C12.4048 8.70598 12.4138 9.04798 12.4318 9.38998C12.4498 9.73198 12.4588 10.083 12.4588 10.443H12.5128C12.6568 10.137 12.8548 9.83998 13.1068 9.55198C13.3768 9.26398 13.6918 9.01198 14.0518 8.79598C14.4118 8.56198 14.8168 8.38198 15.2668 8.25598C15.7168 8.11198 16.2028 8.03998 16.7248 8.03998C16.8688 8.03998 17.0128 8.04898 17.1568 8.06698C17.3008 8.08498 17.4448 8.12098 17.5888 8.17498L17.4538 10.308C17.0938 10.2 16.7158 10.146 16.3198 10.146C15.0238 10.146 14.0788 10.569 13.4848 11.415C12.9088 12.243 12.6208 13.386 12.6208 14.844V21H10.5148V11.361Z" fill="#00BAFA"/>
<path d="M30.8184 18.705C30.0624 19.677 29.2344 20.361 28.3344 20.757C27.4344 21.135 26.3904 21.324 25.2024 21.324C24.2124 21.324 23.3214 21.153 22.5294 20.811C21.7374 20.451 21.0624 19.974 20.5044 19.38C19.9644 18.786 19.5414 18.084 19.2354 17.274C18.9474 16.464 18.8034 15.6 18.8034 14.682C18.8034 13.71 18.9654 12.819 19.2894 12.009C19.6134 11.181 20.0634 10.479 20.6394 9.90298C21.2154 9.30898 21.8994 8.84998 22.6914 8.52598C23.4834 8.20198 24.3474 8.03998 25.2834 8.03998C26.1654 8.03998 26.9754 8.19298 27.7134 8.49898C28.4514 8.78698 29.0814 9.21898 29.6034 9.79498C30.1434 10.353 30.5574 11.046 30.8454 11.874C31.1334 12.684 31.2774 13.611 31.2774 14.655V15.33H21.0714C21.1074 15.87 21.2334 16.392 21.4494 16.896C21.6834 17.382 21.9804 17.814 22.3404 18.192C22.7004 18.552 23.1234 18.84 23.6094 19.056C24.0954 19.272 24.6264 19.38 25.2024 19.38C26.1204 19.38 26.8944 19.218 27.5244 18.894C28.1544 18.57 28.7214 18.093 29.2254 17.463L30.8184 18.705ZM29.0094 13.548C28.9734 12.468 28.6224 11.604 27.9564 10.956C27.2904 10.308 26.3724 9.98398 25.2024 9.98398C24.0324 9.98398 23.0874 10.308 22.3674 10.956C21.6474 11.604 21.2154 12.468 21.0714 13.548H29.0094Z" fill="#00BAFA"/>
<path d="M34.5353 11.361C34.5353 10.785 34.5173 10.245 34.4813 9.74098C34.4453 9.23698 34.4273 8.77798 34.4273 8.36398H36.4253C36.4253 8.70598 36.4343 9.04798 36.4523 9.38998C36.4703 9.73198 36.4793 10.083 36.4793 10.443H36.5333C36.6773 10.137 36.8753 9.83998 37.1273 9.55198C37.3973 9.26398 37.7123 9.01198 38.0723 8.79598C38.4323 8.56198 38.8373 8.38198 39.2873 8.25598C39.7373 8.11198 40.2233 8.03998 40.7453 8.03998C41.5733 8.03998 42.2843 8.16598 42.8783 8.41798C43.4903 8.66998 43.9943 9.02098 44.3903 9.47098C44.7863 9.92098 45.0743 10.47 45.2543 11.118C45.4523 11.748 45.5513 12.441 45.5513 13.197V21H43.4453V13.413C43.4453 12.351 43.2113 11.514 42.7433 10.902C42.2753 10.29 41.5463 9.98398 40.5563 9.98398C39.8723 9.98398 39.2783 10.101 38.7743 10.335C38.2883 10.569 37.8833 10.902 37.5593 11.334C37.2533 11.766 37.0193 12.279 36.8573 12.873C36.7133 13.467 36.6413 14.124 36.6413 14.844V21H34.5353V11.361Z" fill="#00BAFA"/>
<path d="M51.2933 17.922C51.7433 17.922 52.1213 18.084 52.4273 18.408C52.7513 18.714 52.9133 19.092 52.9133 19.542C52.9133 19.992 52.7423 20.379 52.4003 20.703C52.0763 21.009 51.7073 21.162 51.2933 21.162C50.8793 21.162 50.5013 21.009 50.1593 20.703C49.8353 20.379 49.6733 19.992 49.6733 19.542C49.6733 19.092 49.8263 18.714 50.1323 18.408C50.4563 18.084 50.8433 17.922 51.2933 17.922Z" fill="#00BAFA"/>
<path d="M58.1329 10.146H55.3789V8.36398H58.1329V5.52898C58.1329 4.75498 58.2049 4.05298 58.3489 3.42298C58.4929 2.77498 58.7359 2.21698 59.0779 1.74898C59.4379 1.28098 59.9059 0.920977 60.4819 0.668977C61.0579 0.398977 61.7689 0.263977 62.6149 0.263977C62.8849 0.263977 63.1729 0.290977 63.4789 0.344976C63.7849 0.398976 64.0369 0.479976 64.2349 0.587976L63.9379 2.47798C63.4339 2.29798 62.9569 2.20798 62.5069 2.20798C61.9669 2.20798 61.5439 2.30698 61.2379 2.50498C60.9319 2.68498 60.6979 2.94598 60.5359 3.28798C60.3919 3.61198 60.3019 4.00798 60.2659 4.47598C60.2479 4.94398 60.2389 5.44798 60.2389 5.98798V8.36398H63.3169V10.146H60.2389V21H58.1329V10.146Z" fill="#00BAFA"/>
<path d="M65.4075 9.98398C66.0555 9.31798 66.8205 8.83198 67.7025 8.52598C68.6025 8.20198 69.5115 8.03998 70.4295 8.03998C72.3015 8.03998 73.6515 8.48098 74.4795 9.36298C75.3075 10.245 75.7215 11.586 75.7215 13.386V18.813C75.7215 19.173 75.7395 19.551 75.7755 19.947C75.8115 20.325 75.8565 20.676 75.9105 21H73.8855C73.8135 20.712 73.7685 20.397 73.7505 20.055C73.7505 19.695 73.7505 19.38 73.7505 19.11H73.6965C73.2825 19.758 72.7245 20.289 72.0225 20.703C71.3385 21.117 70.5105 21.324 69.5385 21.324C68.8905 21.324 68.2785 21.243 67.7025 21.081C67.1445 20.919 66.6495 20.685 66.2175 20.379C65.8035 20.055 65.4705 19.659 65.2185 19.191C64.9665 18.723 64.8405 18.183 64.8405 17.571C64.8405 16.527 65.1105 15.708 65.6505 15.114C66.1905 14.52 66.8565 14.079 67.6485 13.791C68.4585 13.503 69.3225 13.323 70.2405 13.251C71.1765 13.179 72.0315 13.143 72.8055 13.143H73.6155V12.765C73.6155 11.847 73.3365 11.154 72.7785 10.686C72.2385 10.218 71.4735 9.98398 70.4835 9.98398C69.7995 9.98398 69.1245 10.101 68.4585 10.335C67.8105 10.551 67.2345 10.893 66.7305 11.361L65.4075 9.98398ZM71.5095 14.925C70.1595 14.925 69.0885 15.114 68.2965 15.492C67.5045 15.87 67.1085 16.491 67.1085 17.355C67.1085 18.147 67.3695 18.714 67.8915 19.056C68.4315 19.38 69.0975 19.542 69.8895 19.542C70.5015 19.542 71.0325 19.443 71.4825 19.245C71.9505 19.029 72.3375 18.75 72.6435 18.408C72.9495 18.066 73.1835 17.67 73.3455 17.22C73.5075 16.752 73.5975 16.257 73.6155 15.735V14.925H71.5095Z" fill="#00BAFA"/>
<path d="M79.5705 11.361C79.5705 10.785 79.5525 10.245 79.5165 9.74098C79.4805 9.23698 79.4625 8.77798 79.4625 8.36398H81.4605C81.4605 8.70598 81.4695 9.04798 81.4875 9.38998C81.5055 9.73198 81.5145 10.083 81.5145 10.443H81.5685C81.7125 10.137 81.9105 9.83998 82.1625 9.55198C82.4325 9.26398 82.7475 9.01198 83.1075 8.79598C83.4675 8.56198 83.8725 8.38198 84.3225 8.25598C84.7725 8.11198 85.2585 8.03998 85.7805 8.03998C85.9245 8.03998 86.0685 8.04898 86.2125 8.06698C86.3565 8.08498 86.5005 8.12098 86.6445 8.17498L86.5095 10.308C86.1495 10.2 85.7715 10.146 85.3755 10.146C84.0795 10.146 83.1345 10.569 82.5405 11.415C81.9645 12.243 81.6765 13.386 81.6765 14.844V21H79.5705V11.361Z" fill="#00BAFA"/>
<path d="M89.0627 11.361C89.0627 10.785 89.0447 10.245 89.0087 9.74098C88.9727 9.23698 88.9547 8.77798 88.9547 8.36398H90.9527C90.9527 8.70598 90.9617 9.04798 90.9797 9.38998C90.9977 9.73198 91.0067 10.083 91.0067 10.443H91.0607C91.2047 10.137 91.4027 9.83998 91.6547 9.55198C91.9247 9.26398 92.2397 9.01198 92.5997 8.79598C92.9597 8.56198 93.3647 8.38198 93.8147 8.25598C94.2647 8.11198 94.7507 8.03998 95.2727 8.03998C95.9567 8.03998 96.5237 8.12998 96.9737 8.30998C97.4417 8.47198 97.8287 8.67898 98.1347 8.93098C98.4407 9.16498 98.6747 9.42598 98.8367 9.71398C99.0167 9.98398 99.1607 10.227 99.2687 10.443C99.7367 9.68698 100.277 9.10198 100.889 8.68798C101.501 8.25598 102.293 8.03998 103.265 8.03998C104.165 8.03998 104.921 8.16598 105.533 8.41798C106.145 8.65198 106.64 9.00298 107.018 9.47098C107.396 9.92098 107.666 10.479 107.828 11.145C107.99 11.793 108.071 12.522 108.071 13.332V21H105.965V13.44C105.965 13.008 105.92 12.585 105.83 12.171C105.74 11.757 105.578 11.388 105.344 11.064C105.11 10.74 104.795 10.479 104.399 10.281C104.003 10.083 103.499 9.98398 102.887 9.98398C102.437 9.98398 102.014 10.074 101.618 10.254C101.222 10.434 100.871 10.686 100.565 11.01C100.277 11.334 100.043 11.73 99.8627 12.198C99.7007 12.648 99.6197 13.152 99.6197 13.71V21H97.5137V13.845C97.5137 12.441 97.3247 11.451 96.9467 10.875C96.5687 10.281 95.9477 9.98398 95.0837 9.98398C94.3997 9.98398 93.8057 10.101 93.3017 10.335C92.8157 10.569 92.4107 10.902 92.0867 11.334C91.7807 11.766 91.5467 12.279 91.3847 12.873C91.2407 13.467 91.1687 14.124 91.1687 14.844V21H89.0627V11.361Z" fill="#00BAFA"/>
</svg>
